<svg width="38" height="37" viewBox="0 0 38 37" fill="none" xmlns="http://www.w3.org/2000/svg">
<path d="M19.2246 25.0159C20.5664 25.0631 22.1142 25.0907 23.9002 25.0907C25.6863 25.0907 27.234 25.0631 28.5758 25.0159C27.6245 26.6537 25.8865 27.7501 23.9002 27.7501C21.9139 27.7501 20.1758 26.6537 19.2246 25.0159Z" fill="white"/>
<path d="M34.2935 15.9309C32.7998 17.2218 30.8743 17.9991 28.7727 17.9991C24.0238 17.9991 20.174 14.0303 20.174 9.13445C20.174 5.66947 22.1024 2.66881 24.913 1.21084C24.5799 1.17474 24.242 1.15625 23.9002 1.15625C18.9147 1.15625 14.7585 5.08954 14.3327 10.2105L14.0581 13.5137C13.9469 14.85 13.5331 16.1408 12.8498 17.2823L12.0065 18.691C11.484 19.564 11.2953 20.5726 11.624 21.4666C11.9657 22.3959 12.7867 22.9862 13.8383 23.1304C15.7177 23.3881 18.811 23.6134 23.9002 23.6134C28.9893 23.6134 32.0826 23.3881 33.962 23.1304C35.0136 22.9862 35.8346 22.3959 36.1763 21.4666C36.505 20.5726 36.3164 19.564 35.7938 18.691L34.9505 17.2823C34.6925 16.8512 34.4729 16.3989 34.2935 15.9309Z" fill="white"/>
<ellipse cx="28.7725" cy="9.13446" rx="6.8789" ry="7.09173" fill="#F14144"/>
</svg>
