<svg width="20" height="20" viewBox="0 0 20 20" fill="none" xmlns="http://www.w3.org/2000/svg">
<path d="M15 0H5C2 0 0 2 0 5V11C0 14 2 16 5 16V18.13C5 18.93 5.89 19.41 6.55 18.96L11 16H15C18 16 20 14 20 11V5C20 2 18 0 15 0ZM10 12.17C9.58 12.17 9.25 11.83 9.25 11.42C9.25 11.01 9.58 10.67 10 10.67C10.42 10.67 10.75 11.01 10.75 11.42C10.75 11.83 10.42 12.17 10 12.17ZM11.26 8.02C10.87 8.28 10.75 8.45 10.75 8.73V8.94C10.75 9.35 10.41 9.69 10 9.69C9.59 9.69 9.25 9.35 9.25 8.94V8.73C9.25 7.57 10.1 7 10.42 6.78C10.79 6.53 10.91 6.36 10.91 6.1C10.91 5.6 10.5 5.19 10 5.19C9.5 5.19 9.09 5.6 9.09 6.1C9.09 6.51 8.75 6.85 8.34 6.85C7.93 6.85 7.59 6.51 7.59 6.1C7.59 4.77 8.67 3.69 10 3.69C11.33 3.69 12.41 4.77 12.41 6.1C12.41 7.24 11.57 7.81 11.26 8.02Z" fill="white"/>
</svg>
<svg width="24" height="24" viewBox="0 0 24 24" fill="none" xmlns="http://www.w3.org/2000/svg">
<path d="M12 2C6.49 2 2 6.49 2 12C2 17.51 6.49 22 12 22C17.51 22 22 17.51 22 12C22 6.49 17.51 2 12 2ZM11.25 8C11.25 7.59 11.59 7.25 12 7.25C12.96 7.25 13.75 8.04 13.75 9C13.75 9.64 13.42 10.22 12.89 10.54C12.48 10.79 12.25 11.24 12.25 11.71V12C12.25 12.41 11.91 12.75 11.5 12.75C11.09 12.75 10.75 12.41 10.75 12V11.71C10.75 10.71 11.29 9.79 12.17 9.29C12.41 9.15 12.25 9.08 12.25 9C12.25 8.86 12.14 8.75 12 8.75C11.59 8.75 11.25 8.41 11.25 8ZM12.92 16.38C12.87 16.51 12.8 16.61 12.71 16.71C12.61 16.8 12.51 16.87 12.38 16.92C12.26 16.97 12.13 17 12 17C11.87 17 11.74 16.97 11.62 16.92C11.49 16.87 11.39 16.8 11.29 16.71C11.2 16.61 11.13 16.51 11.08 16.38C11.03 16.26 11 16.13 11 16C11 15.87 11.03 15.74 11.08 15.62C11.13 15.49 11.2 15.39 11.29 15.29C11.39 15.2 11.49 15.13 11.62 15.08C11.86 14.98 12.14 14.98 12.38 15.08C12.51 15.13 12.61 15.2 12.71 15.29C12.8 15.39 12.87 15.49 12.92 15.62C12.97 15.74 13 15.87 13 16C13 16.13 12.97 16.26 12.92 16.38Z" fill="currentColor"/>
</svg>
