
<svg width="24" height="24" viewBox="0 0 24 24" fill="none" xmlns="http://www.w3.org/2000/svg">
<path d="M12.62 2.21C12.46 2.07 12.24 2 12 2C11.76 2 11.54 2.07 11.38 2.21C11.14 2.42 6 6.9 6 12.5C6 16.64 9.36 20 13.5 20C14.06 20 14.61 19.94 15.13 19.82C14.42 19.28 13.76 18.64 13.18 17.91C12.79 18.01 12.38 18.06 11.96 18.05C9.2 18.05 6.96 15.81 6.96 13.05C6.96 9.43 10.16 6.23 12 4.39C13.84 6.23 17.04 9.43 17.04 13.05C17.04 13.55 16.97 14.03 16.85 14.5C17.63 15.17 18.5 15.71 19.43 16.1C19.8 15.3 20 14.41 20 13.5C20 6.9 14.86 2.42 12.62 2.21Z" fill="currentColor"/>
<path d="M17.5 22C19.9853 22 22 19.9853 22 17.5C22 15.0147 19.9853 13 17.5 13C15.0147 13 13 15.0147 13 17.5C13 19.9853 15.0147 22 17.5 22Z" fill="currentColor"/>
</svg>
