<svg width="18" height="20" viewBox="0 0 18 20" fill="none" xmlns="http://www.w3.org/2000/svg">
<path d="M5.35206 18.242C5.78721 18.7922 6.34171 19.2364 6.97367 19.541C7.60564 19.8455 8.29855 20.0025 9.00006 20C9.70158 20.0025 10.3945 19.8455 11.0264 19.541C11.6584 19.2364 12.2129 18.7922 12.6481 18.242C10.2271 18.5702 7.77299 18.5702 5.35206 18.242ZM15.7501 7V7.704C15.7501 8.549 15.9901 9.375 16.4421 10.078L17.5501 11.801C18.5611 13.375 17.7891 15.514 16.0301 16.011C11.4338 17.313 6.56631 17.313 1.97006 16.011C0.211062 15.514 -0.560938 13.375 0.450062 11.801L1.55806 10.078C2.01164 9.36936 2.25217 8.54537 2.25106 7.704V7C2.25106 3.134 5.27306 0 9.00006 0C12.7271 0 15.7501 3.134 15.7501 7Z" fill="white"/>
</svg>
